<?xml version="1.0" standalone="no"?>
<!DOCTYPE svg PUBLIC "-//W3C//DTD SVG 20010904//EN"
 "http://www.w3.org/TR/2001/REC-SVG-20010904/DTD/svg10.dtd">
<svg version="1.0" xmlns="http://www.w3.org/2000/svg"
 width="645.000000pt" height="162.000000pt" viewBox="0 0 645.000000 162.000000"
 preserveAspectRatio="xMidYMid meet">

<g transform="translate(0.000000,162.000000) scale(0.100000,-0.100000)"
fill="#000000" stroke="none">
<path d="M956 1209 c-125 -21 -249 -119 -309 -246 -30 -64 -32 -75 -32 -178 0
-103 2 -114 32 -177 44 -94 109 -160 202 -206 l75 -37 2120 -3 c1846 -2 2127
0 2171 13 79 23 168 86 219 155 62 84 81 144 81 260 0 89 -2 100 -37 173 -65
135 -173 220 -312 246 -71 13 -4132 14 -4210 0z m522 -114 c76 -41 81 -50 47
-85 l-27 -29 -41 27 c-56 37 -165 44 -224 13 -138 -70 -163 -241 -53 -352 76
-76 173 -88 268 -33 45 26 86 80 97 127 l7 27 -111 0 -111 0 0 40 0 40 155 0
c176 0 164 8 145 -91 -20 -103 -76 -180 -165 -227 -67 -36 -186 -38 -256 -5
-101 46 -168 146 -177 263 -6 87 16 153 70 215 68 77 139 106 248 102 61 -3
86 -9 128 -32z m312 -270 l0 -305 -40 0 -40 0 0 305 0 305 40 0 40 0 0 -305z
m518 270 c76 -41 81 -50 47 -85 l-27 -29 -41 27 c-56 37 -165 44 -224 13 -138
-70 -163 -241 -53 -352 76 -76 173 -88 268 -33 45 26 86 80 97 127 l7 27 -111
0 -111 0 0 40 0 40 155 0 155 0 0 -28 c0 -40 -27 -138 -47 -170 -30 -49 -77
-93 -128 -120 -67 -36 -186 -38 -256 -5 -101 46 -168 146 -177 263 -6 87 16
153 70 215 68 77 139 106 248 102 61 -3 86 -9 128 -32z m666 -263 c69 -163
126 -301 126 -305 0 -5 -19 -7 -42 -5 l-42 3 -32 75 -33 75 -152 0 -153 0 -32
-75 -33 -75 -46 -3 c-26 -2 -45 0 -42 5 3 4 54 125 115 269 156 367 137 334
192 334 l47 0 127 -298z m546 278 c61 -31 85 -73 85 -151 0 -56 -4 -71 -27
-101 -25 -33 -26 -37 -11 -49 23 -20 43 -72 43 -114 0 -69 -49 -140 -113 -164
-16 -6 -91 -11 -168 -11 l-139 0 0 305 0 305 145 0 c126 0 151 -3 185 -20z
m614 -277 c69 -164 126 -302 126 -306 0 -5 -19 -7 -42 -5 l-42 3 -32 75 -33
75 -152 0 -153 0 -32 -75 -33 -75 -46 -3 c-26 -2 -45 0 -42 5 3 4 55 127 116
271 156 366 136 332 191 332 l47 0 127 -297z m286 -8 l0 -305 -40 0 -40 0 0
305 0 305 40 0 40 0 0 -305z m518 263 l-3 -43 -92 -3 -93 -3 0 -259 0 -260
-40 0 -40 0 0 260 0 259 -92 3 -93 3 -3 43 -3 42 231 0 231 0 -3 -42z m252
-258 l0 -50 45 0 45 0 0 -40 0 -40 -45 0 -45 0 0 -45 0 -45 -40 0 -40 0 0 45
0 45 -45 0 -45 0 0 40 0 40 45 0 45 0 0 50 0 50 40 0 40 0 0 -50z"/>
<path d="M2742 890 c-29 -66 -52 -122 -52 -125 0 -3 50 -5 111 -5 61 0 109 4
107 9 -22 58 -104 241 -109 241 -3 0 -29 -54 -57 -120z"/>
<path d="M3270 955 l0 -85 93 0 c103 0 135 11 155 54 16 32 9 69 -18 96 -17
17 -34 20 -125 20 l-105 0 0 -85z"/>
<path d="M3270 694 l0 -96 106 4 c102 3 107 4 130 31 41 48 26 116 -33 146
-12 6 -62 11 -112 11 l-91 0 0 -96z"/>
<path d="M3902 890 c-29 -66 -52 -122 -52 -125 0 -3 50 -5 111 -5 61 0 109 4
107 9 -22 58 -104 241 -109 241 -3 0 -29 -54 -57 -120z"/>
</g>
</svg>
